<?xml version="1.0" encoding="UTF-8" standalone="no"?>
<!-- Created with Inkscape (http://www.inkscape.org/) -->

<svg
   xmlns:dc="http://purl.org/dc/elements/1.1/"
   xmlns:cc="http://creativecommons.org/ns#"
   xmlns:rdf="http://www.w3.org/1999/02/22-rdf-syntax-ns#"
   xmlns:svg="http://www.w3.org/2000/svg"
   xmlns="http://www.w3.org/2000/svg"
   xmlns:sodipodi="http://sodipodi.sourceforge.net/DTD/sodipodi-0.dtd"
   xmlns:inkscape="http://www.inkscape.org/namespaces/inkscape"
   version="1.1"
   id="svg3723"
   width="142"
   height="142"
   viewBox="0 0 142 142"
   sodipodi:docname="mui-designer-logo.svg"
   inkscape:version="0.92.4 (5da689c313, 2019-01-14)"
   inkscape:label="Logo Foreground">
  <metadata
     id="metadata3729">
    <rdf:RDF>
      <cc:Work
         rdf:about="">
        <dc:format>image/svg+xml</dc:format>
        <dc:type
           rdf:resource="http://purl.org/dc/dcmitype/StillImage" />
        <dc:title></dc:title>
      </cc:Work>
    </rdf:RDF>
  </metadata>
  <defs
     id="defs3727" />
  <sodipodi:namedview
     pagecolor="#ffffff"
     bordercolor="#666666"
     borderopacity="1"
     objecttolerance="10"
     gridtolerance="10"
     guidetolerance="10"
     inkscape:pageopacity="0"
     inkscape:pageshadow="2"
     inkscape:window-width="1600"
     inkscape:window-height="837"
     id="namedview3725"
     showgrid="false"
     inkscape:pagecheckerboard="true"
     borderlayer="false"
     inkscape:snap-bbox="true"
     inkscape:zoom="5.6568543"
     inkscape:cx="49.025324"
     inkscape:cy="234.50253"
     inkscape:window-x="-8"
     inkscape:window-y="-8"
     inkscape:window-maximized="1"
     inkscape:current-layer="layer1"
     inkscape:snap-global="true"
     showguides="false" />
  <g
     inkscape:groupmode="layer"
     id="layer1"
     inkscape:label="Logo Background"
     style="display:inline;opacity:1">
    <rect
       style="fill:#f9f9f9;stroke-width:0.11138529;stroke-miterlimit:4;stroke-dasharray:none"
       id="rect4582"
       width="102.625"
       height="76.5"
       x="19.624672"
       y="32.639893" />
    <rect
       style="fill:#f9f9f9;stroke-width:0.1;stroke-miterlimit:4;stroke-dasharray:none"
       id="rect4584"
       width="37.476658"
       height="16.440233"
       x="52.149124"
       y="103.2859" />
  </g>
  <g
     id="g3751"
     transform="translate(1.5,0.13989338)"
     style="display:inline">
    <path
       style="fill:#cfedf9"
       d="M 43.25,124.23222 18,109.55606 V 98.278031 C 18,92.075114 18.243583,87 18.541295,87 c 0.297712,0 11.800122,6.525 25.560911,14.5 13.760789,7.975 25.200585,14.5 25.421769,14.5 0.221184,0 11.654744,-6.525 25.407912,-14.5 C 108.68505,93.525 120.17667,87 120.46882,87 c 0.29215,0 0.51709,5.0625 0.49986,11.25 l -0.0313,11.25 -11.21869,6.4351 c -6.17027,3.53931 -17.688369,10.17681 -25.595766,14.75 -7.907398,4.5732 -14.657398,8.29428 -15,8.26909 C 68.780311,138.92899 57.1375,132.30411 43.25,124.23222 Z M 45.483045,99.958103 C 32.29237,92.339375 20.7125,85.628236 19.75,85.044461 18.253853,84.137019 18,82.388633 18,72.991526 18,66.946187 18.407964,62 18.906587,62 19.747746,62 40.105736,73.534211 60,85.282264 c 4.675,2.760703 8.980333,5.026572 9.567407,5.035264 0.587074,0.0087 11.680843,-6.131537 24.652821,-13.644955 12.971982,-7.513419 24.319392,-13.942413 25.216462,-14.286654 1.45873,-0.559764 1.60106,0.570644 1.34718,10.698955 L 120.5,84.409723 97.5,97.738116 c -12.65,7.330614 -24.13263,13.945754 -25.516955,14.700304 -2.390768,1.30314 -3.719329,0.67744 -26.5,-12.480317 z M 44.969637,73.899893 C 31.511337,66.133701 19.9375,59.324047 19.25,58.767328 18.387297,58.068733 18,54.351686 18,46.770566 c 0,-9.659569 0.193047,-10.910464 1.600436,-10.370399 0.880239,0.33778 11.567739,6.396555 23.75,13.463945 12.18226,7.06739 23.123785,13.359516 24.314499,13.982502 1.90586,0.997154 5.175071,-0.601257 27.318818,-13.356955 C 108.81839,42.520346 120.33167,36 120.56882,36 c 0.23715,0 0.42516,5.0625 0.41781,11.25 L 120.97326,58.5 95.861459,73 C 82.049967,80.975 70.454819,87.617054 70.094464,87.760121 69.73411,87.903187 58.427938,81.666085 44.969637,73.899893 Z M 51,51.697858 C 41.375,46.03376 30.39492,39.622111 26.599822,37.449749 22.804724,35.277387 19.684412,33.05 19.665797,32.5 19.636712,31.640686 41.580739,18.429022 62.997373,6.4117063 l 6.497373,-3.6458102 4.474801,2.367052 c 2.46114,1.3018785 7.056157,4.0326741 10.211148,6.0684349 3.154991,2.03576 9.242512,5.590015 13.527826,7.898343 14.932529,8.04356 23.358299,13.232708 22.577569,13.904763 C 118.65902,34.405073 70.196686,61.999918 69.367211,61.998108 68.890245,61.997068 60.625,57.361955 51,51.697858 Z"
       id="path3769"
       inkscape:connector-curvature="0" />
    <path
       style="fill:#99dcf5"
       d="M 43.271768,124.14176 18.043536,109.5 18.021768,98.214816 18,86.929632 l 2.25,1.172742 c 1.2375,0.645008 12.656991,7.185841 25.376646,14.535186 C 58.346301,109.9869 69.053272,116 69.419914,116 c 0.366642,0 11.621079,-6.3 25.00986,-14 C 107.81856,94.3 119.04908,88 119.38651,88 119.72393,88 120,92.916974 120,98.926609 v 10.926611 l -5.75,3.23873 c -3.1625,1.78131 -14.574987,8.33933 -25.361081,14.57339 -10.786095,6.23406 -19.786095,11.28595 -20,11.22642 -0.213906,-0.0595 -11.741623,-6.69703 -25.617151,-14.75 z M 43.223999,98.412524 18,83.825048 V 73.471541 c 0,-5.694429 0.357008,-10.57415 0.793352,-10.843825 0.436343,-0.269675 12.077861,6.009712 25.870039,13.954195 L 69.740078,91.026425 94.977025,76.513212 C 108.85735,68.530946 120.39083,62 120.60699,62 120.82314,62 121,66.908413 121,72.907584 v 10.907585 l -13.75,7.992093 C 78.42939,108.55905 70.518854,113 69.50003,113 68.921412,113 57.097199,106.43564 43.223999,98.412524 Z M 43.981467,73.128276 18.5,58.374634 18.213215,48.024102 c -0.157732,-5.692793 0.06727,-10.677782 0.5,-11.077755 0.432732,-0.399973 11.087356,5.256188 23.676943,12.569245 12.589586,7.313058 23.913517,13.844154 25.16429,14.513548 2.060728,1.102868 4.57582,-0.108234 26.801918,-12.906031 C 107.84665,43.355399 119.37544,37 119.97591,37 c 0.73871,0 0.99997,3.462854 0.80792,10.708489 L 120.5,58.416977 100,70.273811 C 88.725,76.79507 77.24166,83.424681 74.481467,85.006281 l -5.018533,2.875636 z M 50.358466,51.162942 C 40.380623,45.298324 29.193264,38.772359 25.497669,36.660798 21.802073,34.549236 19.165764,32.449614 19.639202,31.99497 20.112641,31.540326 30.85,25.213317 43.5,17.93495 56.15,10.656584 67.214357,4.2561389 68.08746,3.7117396 c 1.196865,-0.7462724 3.411316,0.069076 9,3.3137499 C 81.164357,9.3924513 84.725,11.617247 85,11.969479 c 0.700774,0.897583 16.7318,10.020765 17.70341,10.074928 1.63079,0.09091 16.57151,9.528585 16.58037,10.473408 0.01,1.039779 -48.075625,29.370118 -49.78378,29.330981 -0.55,-0.0126 -9.16369,-4.821236 -19.141534,-10.685854 z"
       id="path3767"
       inkscape:connector-curvature="0" />
    <path
       style="fill:#62caf2"
       d="M 43.894842,124.11691 18.5,109.48041 18.216168,98.740203 C 18.022414,91.408532 18.282277,88 19.034992,88 c 0.606461,0 11.678091,6.125342 24.603623,13.61187 12.925531,7.48653 24.257061,13.80288 25.181176,14.03634 0.930969,0.2352 12.543929,-5.83462 26.042658,-13.61187 C 108.2618,94.316355 119.3993,88 119.61245,88 c 0.21315,0 0.38408,4.8375 0.37985,10.75 l -0.008,10.75 -3.7423,2.1464 c -2.05827,1.18052 -13.46462,7.76253 -25.347458,14.6267 L 69.289684,138.75341 Z M 43.781406,98.737486 19.062812,84.5 19.031406,73.13499 19,61.76998 l 2.25,1.430715 c 1.2375,0.786894 12.689923,7.416271 25.449829,14.731949 L 69.899657,91.233878 94.332617,77.116939 C 107.77075,69.352622 119.04332,63 119.38279,63 c 0.33946,0 0.60365,4.8375 0.58708,10.75 l -0.0301,10.75 -24.485902,14 C 81.98659,106.2 70.412648,112.60687 69.733966,112.73749 69.055285,112.8681 57.376633,106.5681 43.781406,98.737486 Z M 43.75,72.814453 19,58.576708 V 47.681365 C 19,38.332953 19.216299,36.869024 20.52344,37.370621 21.361332,37.69215 32.591523,44.040295 45.47942,51.47761 58.367317,58.914924 69.312816,65 69.80275,65 70.292685,65 81.615471,58.7 94.964498,51 108.31353,43.3 119.40748,37 119.61773,37 119.82798,37 120,41.846333 120,47.769629 v 10.76963 l -24.240172,13.98037 c -13.332095,7.689204 -24.919595,14.104616 -25.75,14.25647 C 69.179423,86.927953 57.3625,80.645213 43.75,72.814453 Z M 45.5,48.043694 C 32.3,40.373578 20.897948,33.735443 20.162107,33.292282 c -0.904446,-0.544703 6.871003,-5.553332 24,-15.459826 L 69.5,3.1783759 76.477368,7.0212921 c 3.837552,2.1136039 7.106604,4.2306229 7.264558,4.7044859 0.24381,0.731431 -4.497614,3.644112 -27.985603,17.191702 -1.509023,0.870386 -2.746523,1.836674 -2.75,2.147308 -0.0035,0.310633 1.456177,1.296212 3.243677,2.190176 1.7875,0.893963 5.561306,2.982173 8.386235,4.640466 l 5.136235,3.015078 16.255408,-9.48769 16.255412,-9.48769 8.47832,4.821476 c 4.66308,2.651812 8.41961,5.253908 8.34785,5.782436 -0.0912,0.671623 -48.580879,29.513086 -49.522266,29.455639 C 69.539237,61.991753 58.7,55.713809 45.5,48.043694 Z"
       id="path3765"
       inkscape:connector-curvature="0" />
    <path
       style="fill:#5caad7"
       d="M 43.975102,124.12427 18.5,109.43293 18.216168,98.716465 C 18.029536,91.669888 18.294566,88 18.990084,88 c 0.581762,0 7.009486,3.447867 14.283832,7.661927 7.274346,4.21406 18.458747,10.679753 24.854224,14.368213 L 69.756281,116.73642 94.62814,102.43353 119.5,88.130636 l 0.28837,9.613503 c 0.1586,5.287431 0.0926,10.123611 -0.14662,10.747071 -0.23925,0.62346 -10.49401,6.91507 -22.788372,13.98135 -12.294358,7.06628 -23.489582,13.63421 -24.878276,14.59542 -2.522093,1.74569 -2.553195,1.73132 -28,-12.94371 z M 44,98.662194 19.5,84.412339 19.216672,73.144484 18.933344,61.876629 l 4.283328,2.49252 C 50.288871,80.122788 69.432064,91 70.085255,91 70.526567,91 81.786064,84.7 95.10636,77 108.42666,69.3 119.47694,63 119.66254,63 119.84814,63 120,67.706031 120,73.457846 v 10.457846 l -4.25,2.446895 c -2.3375,1.345792 -13.59303,7.889761 -25.012295,14.542153 -11.419262,6.65239 -21.094262,12.07547 -21.5,12.05129 C 68.831967,112.93184 57.475,106.49962 44,98.662194 Z M 43.753667,72.787659 19.007335,58.5 19.003667,47.643011 c -0.0031,-9.287357 0.215308,-10.77296 1.510961,-10.275771 1.815825,0.696797 40.448283,22.864658 45.601693,26.166908 l 3.616321,2.3173 L 94.616321,51.480345 119.5,37.109243 119.78625,47.79254 c 0.15743,5.875813 -0.0676,10.805677 -0.5,10.955254 C 118.85381,58.89737 107.925,65.155579 95,72.654925 82.075,80.154271 70.825,86.466773 70,86.682709 69.175,86.898644 57.36415,80.645872 43.753667,72.787659 Z M 54.400316,53.073578 C 46.205142,48.201318 34.939715,41.573387 29.366033,38.344842 L 19.232065,32.474762 44.528328,17.882737 69.82459,3.2907129 76.912295,7.2217262 c 3.898238,2.1620573 7.086236,4.2341468 7.084441,4.6046438 -0.0018,0.370496 -3.939296,2.896564 -8.75,5.613483 -4.810705,2.71692 -12.032152,6.832487 -16.047661,9.145706 l -7.300926,4.205852 9.08093,5.196617 9.080931,5.196617 16.193812,-9.528533 16.193808,-9.528532 6.76579,3.68621 c 12.35942,6.733792 12.20569,6.178148 3.14897,11.381692 C 108.03807,39.680016 96.85,46.117135 87.5,51.500191 c -9.35,5.383056 -17.269858,9.932425 -17.599684,10.109708 -0.329826,0.177284 -7.304826,-3.664061 -15.5,-8.536321 z"
       id="path3763"
       inkscape:connector-curvature="0" />
    <path
       style="fill:#01abf3"
       d="M 43.753658,123.74154 19.007316,109.5 19.003658,98.75 c -0.0035,-10.262405 0.410115,-11.863676 2.546342,-9.858103 0.677034,0.635625 40.155828,23.638203 47.496649,27.674233 0.300657,0.1653 11.775657,-6.16424 25.5,-14.06564 L 119.5,88.134297 l 0.28694,10.110196 c 0.20645,7.274057 -0.0741,10.442017 -1,11.293057 -1.65519,1.52132 -48.57731,28.46521 -49.551924,28.45399 -0.404259,-0.005 -11.87087,-6.41716 -25.481358,-14.25 z M 44,98.51547 19.5,84.23256 19.214947,73.49584 c -0.24845,-9.358011 -0.08606,-10.660358 1.264627,-10.142052 1.821287,0.698893 40.389538,22.818724 45.56224,26.131054 L 69.583628,91.752835 94.45462,77.376417 C 108.13367,69.469388 119.49257,63 119.69664,63 c 0.20406,0 0.2433,4.779574 0.0872,10.621276 L 119.5,84.242553 107,91.446776 c -6.875,3.962322 -18.099347,10.432744 -24.942993,14.378724 -6.843646,3.94597 -12.693646,7.12914 -13,7.07369 C 68.750653,112.84374 57.475,106.37107 44,98.51547 Z M 48,74.924331 C 36.725,68.334228 25.5875,61.965634 23.25,60.771898 L 19,58.601469 V 47.800734 C 19,41.86033 19.226676,37 19.503724,37 c 0.497404,0 44.096833,25.079558 48.024686,27.625084 1.830675,1.186407 4.462708,-0.08812 27,-13.074396 L 119.5,37.161739 l 0.28837,9.597951 c 0.1586,5.278873 0.0896,10.115853 -0.15327,10.748843 -0.46341,1.207615 -48.831728,29.5258 -50.292332,29.444634 C 68.879246,86.927409 59.275,81.514433 48,74.924331 Z M 49,49.857783 C 38.825,43.837214 27.940551,37.468753 24.812335,35.705647 L 19.124671,32.5 43.901524,18.25 C 57.528794,10.4125 69.313243,4.0158894 70.089189,4.0353098 c 0.775946,0.01942 4.271454,1.7775023 7.767795,3.9068487 7.452277,4.5385965 8.971956,2.6849445 -12.204446,14.8865675 l -13.847462,7.978764 8.72586,5.153973 c 4.799223,2.834685 9.376757,4.9042 10.172299,4.598922 0.795542,-0.305278 7.885468,-4.36382 15.755391,-9.018981 7.869924,-4.655162 14.737914,-8.593862 15.262204,-8.752667 0.52429,-0.158805 4.87429,1.902991 9.66667,4.581771 7.72401,4.317462 8.50897,5.009026 6.91296,6.090404 -7.47533,5.06489 -47.570171,27.518953 -49.000113,27.441223 C 68.310156,60.84831 59.175,55.878351 49,49.857783 Z"
       id="path3761"
       inkscape:connector-curvature="0" />
    <path
       style="fill:#00abec"
       d="M 43.753658,123.74154 19.007316,109.5 19.003658,98.75 c -0.0035,-10.262405 0.410115,-11.863676 2.546342,-9.858103 1.714146,1.609306 46.915853,27.441433 48.017712,27.441433 0.67588,0 1.009587,2.44483 0.898591,6.58334 -0.09711,3.62083 0.01332,5.00833 0.245392,3.08333 C 71.413228,120.18101 73,120.04233 73,125.8 c 0,3.95556 -0.358974,5.2 -1.5,5.2 -0.825,0 -1.5,0.675 -1.5,1.5 0,0.825 0.476558,1.5 1.059017,1.5 0.582459,0 0.780902,-0.45 0.440983,-1 -0.821127,-1.32861 1.606321,-1.25257 3.5,0.10965 1.241134,0.8928 1.178774,0.97449 -0.361341,0.47334 -1.42615,-0.46406 -1.714931,-0.22414 -1.235137,1.02619 0.488364,1.27266 0.165309,1.51133 -1.46765,1.0843 -1.532176,-0.40067 -1.946957,-0.16475 -1.546247,0.87948 0.301183,0.78487 -7.71e-4,1.42323 -0.67101,1.41858 -0.670238,-0.005 -12.354469,-6.41716 -25.964957,-14.25 z m 33.773334,8.30213 c -0.325073,-0.52598 -1.300701,-0.684 -2.168062,-0.35116 -1.383507,0.5309 -1.516027,-0.45488 -1.079957,-8.03349 0.273386,-4.75125 0.158136,-8.42917 -0.256111,-8.17315 -0.414246,0.25602 -0.631841,1.57081 -0.483544,2.92177 0.200179,1.82358 -0.113733,2.30917 -1.218689,1.88516 -1.10778,-0.4251 -1.178441,-0.76264 -0.276359,-1.32016 0.666578,-0.41197 0.924018,-1.21493 0.572087,-1.78437 -0.35193,-0.56944 0.796672,-2.05825 2.552449,-3.30847 1.755777,-1.25022 2.92925,-1.84713 2.607717,-1.32647 -0.321532,0.52067 0.520065,1.01299 1.870218,1.09404 2.305825,0.13843 2.345522,0.0581 0.65404,-1.32415 -0.990429,-0.80935 -1.238281,-1.18661 -0.550781,-0.83836 0.6875,0.34825 1.25,0.17074 1.25,-0.39446 0,-0.5652 0.646586,-0.77951 1.436858,-0.47626 0.790271,0.30326 1.192126,1.18914 0.893011,1.96862 C 83.030753,113.36224 83.24435,114 83.804527,114 c 1.09697,0 1.069124,-1.81279 -0.05546,-3.61052 -0.728305,-1.16425 -0.0014,-2.38948 1.4176,-2.38948 0.458333,0 0.720833,0.41824 0.583333,0.92942 -0.1375,0.51118 0.65,1.67291 1.75,2.58163 l 2,1.65222 -2,-0.64088 c -1.442279,-0.46217 -1.698055,-0.33636 -0.917217,0.45115 C 87.701858,114.10217 91,113.38247 91,112.00964 c 0,-0.42701 -0.9,-1.01173 -2,-1.29939 -1.1,-0.28766 -2,-1.04546 -2,-1.68402 0,-0.7361 0.823457,-0.9155 2.25,-0.49019 2.148839,0.64065 2.164508,0.60559 0.34851,-0.77997 -1.480601,-1.12966 -1.612412,-1.62944 -0.595492,-2.25794 0.863223,-0.5335 1.06409,-0.41573 0.592474,0.34736 C 89.203052,106.48047 89.358524,107 89.940983,107 90.523442,107 91,106.49754 91,105.88342 c 0,-0.63052 1.015719,-0.92241 2.333333,-0.67053 1.424945,0.2724 2.333334,-0.0344 2.333334,-0.78808 0,-0.67877 -0.7125,-1.04525 -1.583334,-0.81439 C 93.2125,103.84128 93.85,103.36867 95.5,102.56018 c 1.65,-0.80848 3.814058,-1.49027 4.80902,-1.51508 0.99496,-0.0248 1.5309,-0.4951 1.19098,-1.0451 -0.33992,-0.55 0.11008,-1 1,-1 0.88992,0 1.37172,-0.398543 1.07067,-0.885651 -0.30105,-0.487108 0.68375,-1.120992 2.18844,-1.408631 1.50468,-0.28764 3.01819,-0.06605 3.36334,0.492413 0.41391,0.669725 0.86098,0.6377 1.31324,-0.09407 0.45679,-0.739104 1.27743,-0.792774 2.45833,-0.160776 1.37056,0.733499 1.77953,0.563989 1.80301,-0.747296 0.0167,-0.932792 -0.47081,-2.344867 -1.08334,-3.137944 -0.84913,-1.09942 -0.81675,-1.263564 0.13631,-0.690983 0.6875,0.413036 1.25,0.274417 1.25,-0.308042 C 115,91.476558 115.38798,91 115.86219,91 c 0.4742,0 0.8117,3.9375 0.75,8.75 -0.0866,6.75597 -0.41842,8.68591 -1.45594,8.46875 -0.73906,-0.15469 -1.14501,0.29531 -0.9021,1 0.2429,0.70469 -0.64021,2.29571 -1.96248,3.53561 -1.81603,1.7029 -3.18537,2.12662 -5.59789,1.73219 -2.23223,-0.36496 -2.75655,-0.2356 -1.74153,0.42966 0.79874,0.5235 1.81124,0.72996 2.25,0.45879 0.43876,-0.27117 0.79775,-0.23034 0.79775,0.0907 0,0.32108 -1.18793,1.03542 -2.63985,1.58744 -2.02981,0.77173 -3.03071,0.64996 -4.33116,-0.52693 C 99.403289,115.055 98,115.37201 98,117.2105 c 0,0.48245 0.740815,0.74495 1.646256,0.58334 0.905444,-0.16161 1.817094,0.19112 2.025894,0.78385 0.32283,0.91641 -0.84742,1.75101 -5.92215,4.22356 -0.4125,0.20098 -0.75,-0.37364 -0.75,-1.27693 0,-0.9033 -0.45734,-1.3597 -1.016312,-1.01424 -0.558971,0.34546 -0.767558,1.03061 -0.463525,1.52254 1.016236,1.64431 -3.225434,4.85122 -5.69595,4.30642 -1.928573,-0.42529 -2.068875,-0.31148 -0.824213,0.66855 1.277875,1.00618 1.228742,1.09306 -0.331787,0.58674 C 85.660729,127.26745 84.621672,127 84.359196,127 c -0.262477,0 -0.218332,-0.41891 0.0981,-0.9309 0.316431,-0.512 0.117988,-1.21356 -0.440983,-1.55902 C 83.45734,124.16462 83,124.55697 83,125.38197 c 0,0.825 0.472325,1.79191 1.04961,2.14869 0.640372,0.39577 0.161483,1.41896 -1.228248,2.62427 -1.316969,1.1422 -2.427648,1.52621 -2.632944,0.91032 C 79.993121,130.47936 79.372688,130 78.809678,130 c -0.563011,0 -0.764634,0.675 -0.448052,1.5 0.640447,1.66898 0.08461,2.03104 -0.834634,0.54367 z M 87.5,124 c -0.339919,-0.55 -1.153976,-0.99311 -1.809017,-0.98469 -0.715616,0.009 -0.592275,0.40223 0.309017,0.98469 1.921123,1.24153 2.267305,1.24153 1.5,0 z m 4.166667,-0.40466 c 0,-0.80126 -0.608779,-1.17105 -1.417179,-0.86084 -1.166271,0.44754 -1.181025,0.69352 -0.08333,1.38935 0.733615,0.46504 1.371346,0.85242 1.417179,0.86084 0.04583,0.008 0.08333,-0.61679 0.08333,-1.38935 z M 112,109.13356 c 0,-0.35886 -0.87914,-1.2015 -1.95364,-1.87253 -1.44242,-0.90081 -2.13704,-0.92332 -2.65451,-0.086 -0.42972,0.6953 -0.25422,0.85798 0.45364,0.4205 0.72769,-0.44973 1.15451,0.0361 1.15451,1.31411 0,1.3915 0.4706,1.84704 1.5,1.45203 0.825,-0.31659 1.5,-0.86922 1.5,-1.22807 z M 100.65946,104.75 c 0.27897,0.6875 0.94626,1.25 1.48289,1.25 0.53663,0 0.65701,-0.51563 0.26751,-1.14584 -0.50337,-0.81447 0.10846,-0.94088 2.11562,-0.43712 2.48226,0.62301 2.66691,0.5197 1.52671,-0.85416 C 105.17922,102.51102 105.12212,102 105.87756,102 c 0.61734,0 1.07024,-1.0125 1.00644,-2.25 -0.0873,-1.69317 -0.22918,-1.81691 -0.57333,-0.5 -0.25152,0.9625 -1.09932,1.75 -1.88399,1.75 C 103.642,101 103,101.45 103,102 c 0,0.55 -1.125,1 -2.5,1 -1.720119,0 -2.495223,0.54592 -2.484687,1.75 0.01321,1.51012 0.160725,1.54439 1.076131,0.25 0.798308,-1.12881 1.186326,-1.19068 1.568016,-0.25 z M 44,98.51547 19.5,84.23256 19.214947,73.49584 c -0.245113,-9.232312 -0.07376,-10.65564 1.2229,-10.158064 2.785628,1.068946 47.041994,26.825342 48.812153,28.407781 1.033458,0.923863 1.75,1.104356 1.75,0.440815 0,-0.639717 0.720748,-0.847025 1.673609,-0.481378 1.221779,0.46884 1.515374,0.229871 1.087497,-0.88516 -0.469819,-1.224327 0.130751,-1.470503 3.02683,-1.240713 2.346003,0.186144 3.12261,-0.01637 2.214656,-0.577519 -1.084915,-0.670514 -0.800695,-1.13647 1.268204,-2.079123 1.502971,-0.6848 2.378238,-1.696564 2.005889,-2.318707 C 81.913354,83.996697 82.461718,84.175 83.495272,85 c 1.7171,1.370617 1.818934,1.33945 1.180618,-0.361341 -0.525339,-1.399764 -0.325563,-1.718204 0.805612,-1.284131 0.841932,0.323079 2.372588,-0.354913 3.476603,-1.539934 1.483715,-1.592581 2.299047,-1.846066 3.290696,-1.023071 0.840232,0.697331 1.850056,0.75774 2.784737,0.166587 2.078835,-1.314789 3.209458,-1.175256 2.365154,0.29189 -0.395639,0.6875 -0.334171,0.899475 0.136594,0.471056 1.229255,-1.118683 1.444266,-3.61566 0.368585,-4.280467 -0.504898,-0.312044 -1.17706,0.107755 -1.493693,0.932887 -0.332969,0.867705 -1.232389,1.248242 -2.133236,0.902555 C 92.921995,78.756089 92.95762,78.504157 94.550831,77.339173 95.558116,76.602628 96.937575,76 97.616294,76 c 0.67872,0 4.530116,-2.212598 8.558656,-4.916885 4.02854,-2.704286 7.51686,-4.724637 7.75183,-4.489667 0.23497,0.234969 -0.40853,1.038332 -1.43,1.785249 -1.77499,1.2979 -1.74961,1.410583 0.573,2.544834 2.29888,1.122662 2.32531,1.102755 0.48909,-0.368365 C 112.49125,69.699825 112.16825,69 112.84109,69 c 0.67285,0 1.63033,-1.0125 2.12775,-2.25 0.64695,-1.60953 0.92243,0.240716 0.96777,6.5 0.0349,4.8125 0.48033,8.75 0.98992,8.75 1.12419,0 1.89527,-16.829791 0.79847,-17.427593 -0.42625,-0.232324 -0.26338,-0.326868 0.36193,-0.210098 0.73636,0.137507 1.18557,3.370057 1.275,9.175 0.12872,8.355582 -0.0313,9.121919 -2.36193,11.313357 -2.75457,2.590033 -8,5.575054 -8,4.552569 0,-0.356468 -0.73599,-0.03731 -1.63554,0.709249 -0.89954,0.746556 -2.36204,1.364156 -3.25,1.372445 -0.88795,0.0083 -1.51307,0.544255 -1.38914,1.191036 0.12393,0.646781 -1.22607,1.486243 -2.999998,1.865473 -3.758397,0.803468 -5.934455,2.31116 -5.155295,3.571869 C 94.871431,98.600988 94.218034,99 93.118034,99 c -1.1,0 -2.278115,0.45 -2.618034,1 -0.339919,0.55 -1.096576,1 -1.681462,1 C 88.147951,101 88.214985,100.44589 89,99.5 90.019571,98.271492 89.951235,98 88.622445,98 87.7301,98 87,98.54 87,99.2 c 0,0.91985 -0.274598,0.9254 -1.176206,0.02379 C 84.557916,97.957916 82,99.309923 82,101.24489 c 0,0.55 0.697585,0.42106 1.550188,-0.28654 1.284451,-1.066002 1.841575,-0.982883 3.25,0.48488 1.610522,1.67837 1.575043,1.73389 -0.675417,1.05696 -1.306377,-0.39295 -2.140241,-0.32875 -1.853033,0.14268 0.287208,0.47142 -0.56114,1.66918 -1.885217,2.66169 -2.120966,1.58985 -2.478132,1.62028 -3.001752,0.25575 -0.326886,-0.85185 -1.045229,-1.27016 -1.596317,-0.92957 -0.616376,0.38095 -0.483057,0.93997 0.346426,1.45262 1.126473,0.6962 1.1199,1.04595 -0.03994,2.125 -1.137705,1.05846 -1.25186,1.05128 -0.63233,-0.0397 0.553048,-0.97394 0.130685,-1.24241 -1.57322,-1 -2.180268,0.31019 -2.309132,0.0437 -2.014919,-4.16684 0.172873,-2.47402 0.523397,-4.83652 0.778941,-5.249999 C 74.908952,97.338301 74.641476,97 74.059017,97 73.470552,97 73,98.999482 73,101.5 c 0,5.70776 -1.749135,5.89805 -2.298039,0.25 -0.378589,-3.89557 -0.41071,-3.823836 -0.385167,0.86017 0.02165,3.97052 0.371168,5.0856 1.567222,5 0.846645,-0.0606 1.712775,0.78983 1.924734,1.88983 0.311738,1.61782 0.137526,1.76114 -0.911685,0.75 -1.438896,-1.38668 -2.961919,-1.66074 -2.778644,-0.5 0.265972,1.68449 -0.164042,3.24387 -0.868421,3.14919 C 68.8375,112.84374 57.475,106.37107 44,98.51547 Z m 31,-4.025058 c 0,-1.068605 -3.061301,-1.121476 -3.935632,-0.06797 -0.852458,1.02715 -0.549898,1.201868 1.426887,0.823982 C 73.871065,94.982655 75,94.64245 75,94.490412 Z M 95,93.116631 C 95,92.630779 94.074282,91.991182 92.942849,91.695306 91.254881,91.253892 91.097392,91.412424 92.065294,92.578674 93.385572,94.169512 95,94.465451 95,93.116631 Z M 100.75501,91.25 c 0.22641,-0.6875 -0.1024,-1.25 -0.73069,-1.25 -0.628296,0 -0.884122,0.417827 -0.568506,0.928506 0.315616,0.510678 -0.445326,1.14689 -1.690983,1.413804 -2.121749,0.45464 -2.111841,0.474951 0.156841,0.321495 1.33192,-0.09009 2.606918,-0.726305 2.833338,-1.413805 z M 97.25,90.337719 c -0.6875,-0.277412 -1.8125,-0.277412 -2.5,0 -0.6875,0.277413 -0.125,0.504386 1.25,0.504386 1.375,0 1.9375,-0.226973 1.25,-0.504386 z M 82.5,89 c -0.860244,-1.391904 0.845015,-1.254985 2.283333,0.183333 0.650834,0.650834 1.415156,0.951512 1.698494,0.668174 C 86.765165,89.568169 85.873343,88.734991 84.5,88 81.89958,86.608298 80.321262,87.092761 81.458881,88.933469 81.821415,89.520061 82.343034,90 82.618034,90 82.893034,90 82.839919,89.55 82.5,89 Z M 89,87.5 c -1.375,-0.786021 -1.8625,-1.445075 -1.083333,-1.464565 0.779166,-0.01949 1.146605,-0.305496 0.816531,-0.635571 -0.330075,-0.330074 -1.101926,-0.290012 -1.715225,0.08903 -1.4999,0.926989 0.632984,3.524039 2.854472,3.475673 C 90.992337,88.940182 90.720207,88.483359 89,87.5 Z m 23,-0.806989 c 0,-0.743527 -0.37609,-0.716926 -1.17621,0.0832 -0.85892,0.858922 -1.5333,0.879843 -2.5,0.07756 C 107.44625,86.125462 107,86.105391 107,86.794222 c 0,1.275793 2.05977,2.073053 3.75,1.451482 0.6875,-0.252825 1.25,-0.951537 1.25,-1.552693 z m 4,-2.645039 c 0,-0.458697 -0.69837,-1.101985 -1.55194,-1.429529 -0.88992,-0.341496 -1.29132,-0.173849 -0.94098,0.393011 0.82998,1.342936 -0.8396,1.256026 -2.2107,-0.115079 -0.73017,-0.730163 -1.68088,-0.780581 -2.80946,-0.148991 -1.5783,0.88326 -1.58162,1.002297 -0.0444,1.59217 0.97623,0.374616 1.40944,0.22986 1.05044,-0.351008 -0.88645,-1.434306 0.70399,-1.154361 2.9044,0.511224 C 114.26073,85.910266 116,85.692151 116,84.047972 Z m -3.00087,-10.642984 c 4.8e-4,-0.05226 -0.9185,-0.927027 -2.04216,-1.943934 -1.99257,-1.803251 -2.025,-1.800904 -1.31277,0.09501 0.602,1.602497 0.47733,1.738903 -0.7098,0.776617 -1.10043,-0.892008 -1.8313,-0.881241 -3.0989,0.04565 -1.39002,1.016408 -0.94407,1.20557 2.75197,1.167316 2.42594,-0.02511 4.41119,-0.08841 4.41166,-0.140663 z M 117,108.78998 c 1.204,-1.03543 1.40133,-3.09709 1,-10.44773 -0.275,-5.036762 -0.20093,-8.971459 0.16459,-8.743769 0.36552,0.227689 0.81552,-0.02573 1,-0.563158 0.18448,-0.537427 0.33541,3.83833 0.33541,9.723903 0,9.931094 -0.1439,10.723334 -2,11.010884 -1.73365,0.26858 -1.80024,0.13805 -0.5,-0.98013 z m -8.36926,-13.578432 c -1.06669,-1.725945 2.63362,-2.375759 4.26109,-0.748292 C 113.83388,95.405308 113.9815,96 113.2733,96 112.6379,96 111.81023,95.501957 111.43402,94.893237 110.94522,94.102345 110.53595,94.132815 110,95 c -0.47411,0.767119 -0.9778,0.844939 -1.36926,0.211548 z M 48,74.924331 C 36.725,68.334228 25.5875,61.965634 23.25,60.771898 L 19,58.601469 V 47.693746 c 0,-8.328377 0.295587,-10.788514 1.25,-10.403603 0.6875,0.277266 12.05,6.778827 25.25,14.447912 l 24,13.943792 0.245913,6.409076 c 0.135253,3.524993 0.499341,7.904611 0.809085,9.732486 0.466905,2.75532 0.809475,3.118995 2.004087,2.127555 C 73.351588,83.293245 74,83.187979 74,83.71704 74,84.472185 69.60012,87.160202 68.702947,86.953167 68.591326,86.927409 59.275,81.514433 48,74.924331 Z m 26.398839,7.672643 C 74.09315,81.80036 73.990856,77.514097 74.17152,73.071944 74.352184,68.629791 74.1625,64.996359 73.75,64.997651 73.3375,64.998943 73,68.825 73,73.5 c 0,5 -0.411765,8.5 -1,8.5 -0.587236,0 -1,-3.464337 -1,-8.393011 0,-7.03536 0.28308,-8.51671 1.75,-9.157719 0.9625,-0.42059 2.319621,-0.672373 3.015823,-0.559519 0.696203,0.112855 1.146203,-0.378672 1,-1.092281 -0.146202,-0.713608 0.540522,-1.301404 1.526055,-1.306213 0.985533,-0.0048 2.216142,-0.679808 2.734687,-1.5 C 81.54511,59.171066 81.961954,58.95 81.952884,59.5 c -0.02343,1.42109 -2.137995,3.971074 -4.270987,5.150457 -1.495305,0.826789 -1.213334,0.991448 1.588154,0.927408 2.54152,-0.0581 3.305428,-0.4662 3.009087,-1.607542 -0.218443,-0.841323 0.06498,-2.745228 0.629834,-4.2309 0.746798,-1.96423 1.489749,-2.52365 2.72306,-2.050384 1.148841,0.440852 1.462167,0.272396 0.971132,-0.522117 -0.497296,-0.804642 7.01e-4,-1.038339 1.585955,-0.744249 1.270984,0.235789 2.310881,0.494224 2.310881,0.5743 0,0.08008 1.6875,0.351125 3.75,0.602331 3.726982,0.453933 5.165275,-0.842234 2.198062,-1.980861 -0.853566,-0.327544 -1.295446,-0.180522 -0.981956,0.326716 0.31349,0.507237 -0.654084,0.791743 -2.150165,0.632235 -1.496082,-0.159508 -2.879898,-0.769266 -3.075149,-1.355018 -0.212516,-0.637547 0.570991,-0.861085 1.952103,-0.556943 C 94.104748,55.086453 94.243021,54.972451 93,54 c -1.247332,-0.975823 -1.120765,-1.090367 0.75138,-0.680005 1.238259,0.271418 2.030714,0.136442 1.76101,-0.299947 -0.269703,-0.436389 0.26393,-1.406922 1.185851,-2.156741 1.463914,-1.190633 1.593152,-1.141655 1.020375,0.386693 -0.360716,0.9625 -0.251267,1.75 0.243218,1.75 0.494485,0 1.042862,-1.004498 1.218615,-2.232218 0.233514,-1.631206 1.066191,-2.288663 3.092641,-2.441861 1.52519,-0.115305 2.53555,0.17469 2.24523,0.644433 -0.43973,0.711498 1.61598,0.706186 3.48168,-0.009 0.275,-0.105416 1.175,-0.14888 2,-0.09658 2.38218,0.151 5.10332,-2.431961 4.42481,-4.200121 -0.5527,-1.440315 -0.85929,-1.431031 -3.26737,0.09894 -1.46159,0.928619 -3.0226,2.271165 -3.4689,2.983437 C 106.69323,49.335481 105,48.445562 105,46.333994 c 0,-0.958064 0.56581,-1.330849 1.48475,-0.978221 C 107.35251,45.688763 108.39772,45.125372 109,44 c 0.57018,-1.065396 1.65948,-1.684163 2.43856,-1.385202 0.79732,0.30596 1.89032,-0.360808 2.51993,-1.537239 1.26823,-2.369716 2.66,-2.633705 4.36294,-0.827559 0.81192,0.861126 1.0032,3.894345 0.61487,9.75 l -0.56369,8.5 -0.20162,-8 C 118.0601,46.1 117.53316,41.825 117,41 c -1.16154,-1.79736 -1.17905,-1.649032 -1.00098,8.481468 0.0772,4.389807 0.57043,8.499755 1.09616,9.133217 1.33702,1.611007 -1.48528,2.567296 -3.12003,1.05717 -0.97692,-0.902447 -1.10631,-0.884482 -0.56284,0.07814 0.38815,0.6875 0.20261,1.25 -0.41231,1.25 -0.61492,0 -0.87901,0.386743 -0.58688,0.859428 0.29214,0.472686 -0.63233,0.73171 -2.05437,0.575609 -1.82581,-0.200423 -2.72809,0.261312 -3.07068,1.571397 -0.54832,2.096767 -2.93477,3.32995 -4.53282,2.342302 -0.60993,-0.376955 -0.7729,-0.186307 -0.38175,0.446582 0.7466,1.20803 -2.71892,3.525929 -3.742017,2.502832 C 98.284167,68.950834 98,69.191667 98,69.833333 98,70.475 97.3801,71 96.622445,71 c -0.757656,0 -1.933644,0.670045 -2.613307,1.48899 -0.679663,0.818944 -1.58761,1.271528 -2.01766,1.005743 -0.43005,-0.265785 -1.039938,0.18917 -1.355308,1.011011 C 90.3208,75.327585 89.434333,76 88.666243,76 c -0.768089,0 -2.577867,0.929243 -4.021728,2.064985 -1.443862,1.135741 -3.105259,1.768294 -3.691993,1.405672 -2.084097,-1.288043 -5.619189,-1.171562 -5.619189,0.185152 0,1.66447 0.894121,1.716737 2.466667,0.144191 0.66,-0.66 1.2,-0.885 1.2,-0.5 0,0.385 -0.910207,1.610207 -2.022681,2.722681 -1.64818,1.64818 -2.125588,1.754511 -2.57848,0.574293 z m 13.174536,-7.837418 c 1.059644,-0.250316 -0.839243,-0.411119 -4.219749,-0.357339 -3.455508,0.05497 -5.901024,0.50053 -5.585955,1.017722 0.309537,0.50811 -0.207774,0.625155 -1.155564,0.261454 -1.056227,-0.405312 -1.471419,-0.262772 -1.079888,0.370739 0.349852,0.566072 1.498224,0.755593 2.551938,0.421158 1.220372,-0.387332 1.926882,-0.12984 1.946252,0.709322 0.01879,0.814228 0.424206,0.640964 1.06146,-0.453644 0.567079,-0.974068 1.475246,-1.496506 2.01815,-1.160973 0.542904,0.335533 0.627746,1.153706 0.188539,1.818163 -0.439207,0.664456 -0.09054,0.447696 0.774817,-0.481689 0.865356,-0.929385 2.440356,-1.894596 3.5,-2.144913 z M 94.55887,70.444834 C 96.389176,68.978456 96.357268,68.957643 94,70.080288 90.938968,71.5381 90.371661,72 91.642204,72 c 0.536545,0 1.849045,-0.699825 2.916666,-1.555166 z m 3.758769,-2.59618 c 1.13993,0.946058 1.559425,0.914096 1.967731,-0.149922 0.8071,-2.10328 -5.936858,-1.495905 -8.035761,0.723716 -1.70154,1.799405 -1.662119,1.800422 1.434813,0.03703 2.521455,-1.435719 3.486047,-1.562886 4.633217,-0.61082 z M 109.55279,61.08541 c -0.31089,-0.503024 5e-5,-1.116417 0.69098,-1.363095 0.73069,-0.260876 0.8852,-0.819537 0.36933,-1.33541 -0.51588,-0.515873 -1.07454,-0.361368 -1.33541,0.369326 -0.24668,0.690926 -0.86008,1.001869 -1.3631,0.690983 C 107.41157,59.136327 107,59.321024 107,59.85765 c 0,0.536626 0.5625,1.202657 1.25,1.480069 1.86074,0.750823 1.91613,0.740096 1.30279,-0.252309 z M 59.75,56.173133 52,51.538662 51.984687,46.019331 c -0.01039,-3.745862 -0.31051,-5.052693 -0.934017,-4.067077 -0.505287,0.79874 -0.653868,1.880769 -0.330178,2.404509 0.330893,0.535396 0.05554,0.622854 -0.628997,0.199784 -0.688632,-0.425598 -2.122411,0.05028 -3.300608,1.095492 -1.516122,1.344992 -2.202655,1.506047 -2.522397,0.59173 -0.241621,-0.690926 -0.834462,-1.012013 -1.317426,-0.713525 -0.482963,0.298488 -1.794529,-0.373709 -2.914589,-1.493769 C 38.916414,42.916414 37.325,42 36.5,42 35.675,42 35,41.523442 35,40.940983 35,40.358524 34.548643,40.16092 33.996983,40.501864 32.878832,41.19292 33.118518,38.203995 34.337947,36.25 c 0.540089,-0.86543 0.0697,-1.245289 -1.52893,-1.234687 C 31.539058,35.023735 30.95,35.361235 31.5,35.765313 33.090522,36.933849 33.136147,39 31.571429,39 c -0.785715,0 -2.208857,-0.780285 -3.162538,-1.733966 -0.953681,-0.953681 -2.448324,-1.741181 -3.321428,-1.75 -0.873105,-0.0088 -1.456561,-0.633741 -1.296569,-1.388715 0.182832,-0.862755 -0.269625,-1.15759 -1.217975,-0.793674 -0.829878,0.318454 -1.776802,0.145482 -2.104276,-0.384382 -0.327474,-0.529864 0.193628,-1.26617 1.158005,-1.636236 0.964377,-0.370066 1.910057,-0.202913 2.101511,0.371451 0.327205,0.981614 6.060029,0.860667 7.06985,-0.149154 0.255726,-0.255726 1.41829,-0.006 2.583474,0.555026 2.065328,0.994374 2.069523,0.980748 0.167095,-0.54271 -1.30953,-1.048667 -2.998772,-1.366208 -5.13548,-0.965359 -2.02732,0.380327 -3.4613,0.148743 -3.947202,-0.637463 -0.556262,-0.900051 -0.04648,-1.097796 1.880459,-0.729438 1.776351,0.339571 3.647802,-0.235516 5.704643,-1.753005 1.683571,-1.2421 2.591743,-2.416766 2.018159,-2.610369 C 33.495573,24.658403 35.604023,23.15 38.754602,21.5 c 3.150578,-1.65 6.352688,-3.58838 7.1158,-4.30751 0.763112,-0.719131 2.027825,-1.061785 2.810475,-0.761455 0.782649,0.300331 1.186084,0.162721 0.896523,-0.3058 -0.891972,-1.44324 11.758194,-7.3153467 13.96953,-6.4845447 1.700917,0.6390367 1.783351,0.5249427 0.638503,-0.8837207 -1.117697,-1.375256 -1.005376,-1.7829655 0.75,-2.7224146 C 66.313679,5.2969403 67,5.2737572 67,5.9648162 c 0,0.5693511 -0.7875,1.0420745 -1.75,1.0504966 -1.492582,0.01306 -1.529356,0.1554424 -0.25,0.9679541 0.957238,0.6079363 1.621365,0.600141 1.83541,-0.021543 0.184476,-0.5358016 0.705009,-0.74576 1.156741,-0.4665742 0.451733,0.2791858 0.585814,-0.3930104 0.297959,-1.4937694 -0.812507,-3.1070306 2.326254,-2.4689026 9.577477,1.947156 l 6.367587,3.8779157 -3.867587,2.392405 C 72.520976,19.072599 67,22.067709 67,21.470725 c 0,-0.33747 -0.707143,0.09356 -1.571429,0.957846 -1.846429,1.84643 -2.42049,1.906289 -4.428571,0.461784 -1.31977,-0.949372 -1.314306,-1.02081 0.04547,-0.594557 0.994686,0.311807 1.596214,-0.189154 1.687851,-1.405668 C 62.811632,19.850559 62.283557,19 61.559823,19 60.83609,19 59.479761,17.9875 58.54576,16.75 c -1.613103,-2.137271 -1.615407,-2.108173 -0.04599,0.580788 0.90871,1.556934 1.412659,3.455022 1.119886,4.217975 -0.292772,0.762953 -0.101966,1.653156 0.424013,1.978229 C 60.569653,23.852065 61,24.568034 61,25.118034 c 0,0.55 -0.453178,0.71992 -1.007063,0.377601 -0.553884,-0.34232 -1.281437,0.09261 -1.616783,0.966506 -0.43178,1.1252 -0.96729,1.292149 -1.834946,0.572058 -0.673875,-0.559266 -1.482782,-0.759292 -1.797571,-0.444503 -0.314789,0.31479 -1.544947,0.05182 -2.733685,-0.58437 -1.975533,-1.057273 -2.06985,-0.985763 -1.097105,0.831827 0.585329,1.093698 1.631891,2.217233 2.325694,2.496747 0.767207,0.309085 0.575792,0.539138 -0.488541,0.587153 C 51.7875,29.964474 51,30.45 51,31 c 0,0.55 0.38523,0.8875 0.856067,0.75 0.470837,-0.1375 4.745837,1.986739 9.5,4.72053 L 70,41.44106 l 0.118421,8.52947 c 0.06513,4.691209 0.06513,8.86697 0,9.27947 -0.197574,1.251301 1.562011,0.839982 2.802905,-0.655204 0.741659,-0.893644 1.04152,-4.26107 0.823689,-9.25 L 73.402488,41.5 73.201244,49.75 C 72.927491,60.972509 71,60.53469 71,49.25 V 40.5 l 2.75,-0.03346 c 1.5125,-0.0184 3.12995,0.431599 3.594332,1 0.490325,0.600155 0.588912,0.249197 0.235138,-0.83706 -0.503605,-1.546309 -0.216636,-1.771587 1.655668,-1.299737 2.05787,0.518616 2.104924,0.45101 0.514862,-0.739724 -1.771733,-1.326781 -2.504704,-3.174487 -0.854785,-2.154782 0.492369,0.304301 1.16419,-0.147663 1.492937,-1.004365 0.328747,-0.856701 0.999913,-1.309071 1.491478,-1.005267 C 82.371196,34.729412 83.325362,34.312888 84,33.5 c 0.674638,-0.812888 1.585017,-1.256474 2.023065,-0.985745 0.438048,0.270728 1.54979,0.20315 2.470539,-0.150174 C 89.659702,31.916607 89.813364,31.502687 89,31 88.176534,30.49107 88.299213,30.099159 89.416154,29.670548 90.287269,29.33627 91,29.498646 91,30.031385 91,30.564123 91.435877,31 91.968615,31 c 0.532739,0 0.707635,-0.680103 0.38866,-1.511341 -0.419422,-1.092995 -0.122232,-1.335695 1.073649,-0.876792 2.159778,0.828784 1.519317,2.577828 -1.509893,4.123391 -1.331567,0.679392 -1.852425,1.241892 -1.157462,1.25 0.694963,0.0081 2.171193,-0.547758 3.280512,-1.235258 1.657915,-1.027492 2.17984,-0.988145 2.932059,0.22104 0.503313,0.809071 1.210116,1.176038 1.570673,0.81548 0.360558,-0.360557 -0.490895,-1.891958 -1.892117,-3.403113 -2.630256,-2.836613 -2.695005,-4.719841 -0.128415,-3.734948 0.804228,0.308611 1.232476,0.932863 0.951664,1.387227 -0.280813,0.454365 -0.09273,1.084355 0.417958,1.399979 1.018029,0.629176 0.940839,-1.307765 -0.119641,-3.002182 -0.367124,-0.586584 0.54553,-1.77265 2.02812,-2.635702 2.612168,-1.520607 2.968788,-1.413136 11.519478,3.471508 l 8.82387,5.040693 -4.32387,2.688996 c -8.78958,5.466207 -17.763732,9.907328 -18.292116,9.052384 -0.299313,-0.484298 0.0211,-1.068976 0.712025,-1.299285 C 98.934696,42.521768 98.0375,42.333333 96.25,42.333333 c -3.387626,0 -4.358976,1.303883 -1.724477,2.314835 C 96.498534,45.405283 94.56173,48 92.023578,48 c -0.952343,0 -2.945428,1.125 -4.429077,2.5 -1.48365,1.375 -3.06926,2.5 -3.523578,2.5 -0.454319,0 -1.382122,0.670045 -2.061785,1.48899 -0.679663,0.818944 -1.634764,1.242386 -2.122445,0.940983 C 79.399012,55.128569 79,55.385081 79,56 c 0,0.614919 -0.411565,0.863673 -0.91459,0.552786 -0.503024,-0.310886 -1.142498,5.7e-5 -1.421052,0.690983 -0.402386,0.998078 -0.522687,0.994953 -0.585411,-0.01521 C 76.035526,56.52927 77.125,55.444538 78.5,54.818046 79.875,54.191554 81,53.301202 81,52.839485 81,52.377768 81.9,52 83,52 c 1.1,0 2,-0.438862 2,-0.975249 0,-0.608506 -0.877505,-0.641623 -2.333474,-0.08806 -1.364979,0.518964 -2.921394,0.515047 -3.75,-0.0094 -2.313486,-1.464375 -3.46466,-1.04854 -1.359228,0.49099 1.066757,0.780031 1.61364,1.744157 1.215296,2.142501 -0.398344,0.398344 -1.410137,0.155036 -2.248428,-0.540684 C 75.614699,52.265265 75,52.174186 75,52.794222 c 0,0.571511 0.5625,1.266085 1.25,1.543497 1,0.403509 1,0.520176 0,0.583334 -0.6875,0.04342 -1.25,0.721804 -1.25,1.507518 0,2.166651 -2.873621,4.583318 -5.321429,4.475231 C 68.480357,60.850893 64.0125,58.722092 59.75,56.173133 Z M 45,43.105787 c 0,-0.491818 -1.081818,-0.829318 -2.404041,-0.75 C 41.273737,42.435104 40.400294,42.8375 40.654976,43.25 41.30873,44.308865 45,44.18635 45,43.105787 Z m 3.729167,-0.709954 c -0.332292,-0.332291 -1.194792,-0.367818 -1.916667,-0.07895 -0.797733,0.319226 -0.560776,0.556183 0.604167,0.604167 1.054166,0.04342 1.644791,-0.192928 1.3125,-0.52522 z M 100.6,39.4 c -0.35589,-0.927441 -0.872077,-1.461256 -1.147077,-1.186256 -0.275,0.275 -0.208815,1.258815 0.147077,2.186256 0.355892,0.927441 0.87208,1.461256 1.14708,1.186256 0.275,-0.275 0.20881,-1.258815 -0.14708,-2.186256 z M 83,37.059017 c 0,-0.517541 -0.375,-1.172746 -0.833333,-1.456011 -0.458334,-0.283266 -0.833334,0.140176 -0.833334,0.940983 0,0.800806 0.375,1.456011 0.833334,1.456011 C 82.625,38 83,37.576558 83,37.059017 Z M 101.5,36 c 0.33992,-0.55 -0.11008,-1 -1,-1 -0.889919,0 -1.339919,0.45 -1,1 0.339919,0.55 0.78992,1 1,1 0.21008,0 0.66008,-0.45 1,-1 z M 30,33.91356 c 0,-0.523971 -1.180213,-0.738661 -2.622695,-0.477089 -3.734549,0.677203 -3.899692,1.244316 -0.391391,1.344065 C 28.643661,34.82767 30,34.43753 30,33.91356 Z m 71.23337,-6.093414 c 0.19176,-2.02392 -0.007,-3.459862 -0.44236,-3.190983 -0.43506,0.268879 -0.73881,2.599813 -0.67501,5.179854 0.12177,4.924186 0.53147,4.194928 1.11737,-1.988871 z M 35,28.440983 c 0,-0.857459 -0.45734,-1.276365 -1.016312,-0.930902 -0.558971,0.345464 -0.757414,1.047021 -0.440983,1.559017 C 34.399945,30.456142 35,30.197509 35,28.440983 Z m 4.441029,-4.972713 c 1.509843,-1.14199 2.110902,-1.193261 2.705733,-0.230804 0.477964,0.773362 0.701508,0.398365 0.596167,-1.000074 C 42.650233,21.006826 42.532579,20 42.481475,20 42.430372,20 40.863708,21.125 39,22.5 c -1.863708,1.375 -2.963633,2.485688 -2.44428,2.468197 0.519354,-0.01749 1.817743,-0.692459 2.885309,-1.499927 z M 49,21.044222 C 49,18.33133 47.984988,18.015012 45.916667,20.083333 43.696379,22.303621 43.483001,23.647602 45.25,24.282394 46.954669,24.894794 49,23.128625 49,21.044222 Z M 68.5,19 C 68.160081,18.45 66.896024,18.031628 65.690983,18.070285 63.578617,18.138049 63.571764,18.171409 65.5,19 c 2.752484,1.182783 3.731,1.182783 3,0 z M 56.319884,16.709323 C 56.051375,16.27445 54.857057,16.17839 53.665843,16.495856 52.188871,16.889479 52.454184,16.517739 54.5,15.327089 56.15,14.3668 57.8375,13.67536 58.25,13.790555 58.6625,13.90575 59,13.55 59,13 c 0,-1.467141 -1.107136,-1.232048 -4.799498,1.019141 -3.6326,2.214753 -3.543564,3.849889 0.197412,3.625454 1.325592,-0.07953 2.190479,-0.5004 1.92197,-0.935272 z m -8.292667,31.823471 c -1.318172,-1.5883 -0.473133,-3.848099 1.227051,-3.281371 1.307223,0.435741 1.873866,3.551352 0.769972,4.233596 -0.438694,0.271128 -1.337355,-0.157373 -1.997023,-0.952225 z m 62.413913,-2.064597 c 1.06762,-0.807509 2.41762,-1.453885 3,-1.436394 0.58238,0.01749 0.18536,0.692492 -0.88226,1.5 -1.06762,0.807509 -2.41762,1.453885 -3,1.436394 -0.58238,-0.01749 -0.18536,-0.692492 0.88226,-1.5 z M 74,39.59106 C 74,39.400666 74.675,38.684689 75.5,38 76.364593,37.282451 77,37.185262 77,37.770566 c 0,0.558501 -0.675,1.274478 -1.5,1.59106 -0.825,0.316583 -1.5,0.419828 -1.5,0.229434 z m 45.07895,-1.174393 c 0.048,-1.164943 0.28494,-1.4019 0.60416,-0.604167 0.28887,0.721875 0.25335,1.584375 -0.0789,1.916667 -0.3323,0.332291 -0.56864,-0.258334 -0.52522,-1.3125 z M 28,27.606989 c 0,-0.216156 0.698372,-0.661002 1.551938,-0.988546 0.889925,-0.341496 1.291322,-0.173849 0.940983,0.393011 C 29.905663,27.961658 28,28.416902 28,27.606989 Z"
       id="path3759"
       inkscape:connector-curvature="0" />
    <path
       style="fill:#2b83ba"
       d="M 43.713284,123.70704 19.007316,109.5 19.003658,98.75 c -0.0035,-10.262405 0.410115,-11.863676 2.546342,-9.858103 0.5225,0.490543 11.3,6.851112 23.95,14.134593 12.65,7.28349 23.208368,13.42801 23.463041,13.65448 0.510136,0.45366 0.300772,20.38855 -0.219594,20.90892 -0.178308,0.1783 -11.441881,-6.06898 -25.030163,-13.88285 z M 44,98.38346 19.5,84.23256 19.214947,73.49584 c -0.245113,-9.232312 -0.07376,-10.65564 1.2229,-10.158064 2.000022,0.767481 46.838205,26.613307 47.847653,27.580559 0.432026,0.413966 0.657026,5.446922 0.5,11.184345 L 68.5,112.53436 Z M 48,74.871165 C 36.725,68.310304 25.5875,61.965634 23.25,60.771898 L 19,58.601469 V 47.800734 C 19,41.86033 19.228456,37 19.50768,37 c 0.279224,0 11.499918,6.367026 24.934876,14.148946 l 24.427196,14.148945 0.333268,9.601055 c 0.183298,5.28058 0.100103,10.118555 -0.184876,10.751055 C 68.696409,86.36408 60.729206,82.27822 48,74.871165 Z M 59.707586,56.153802 51.915172,51.5 52.080845,41.75 c 0.09112,-5.3625 0.52191,-9.75 0.957312,-9.75 0.435401,0 4.092434,1.948373 8.126741,4.329717 L 68.5,40.659434 68.784983,50.829717 c 0.156741,5.593656 -0.06826,10.126994 -0.5,10.074085 -0.431741,-0.05291 -4.291569,-2.190409 -8.577397,-4.75 z M 102,32.427144 V 21.76998 l 2.25,1.449239 c 1.2375,0.797081 5.33126,3.162035 9.09724,5.255453 l 6.84723,3.806215 -4.34723,2.661201 c -2.39098,1.46366 -6.48474,3.89443 -9.09724,5.40171 L 102,43.084308 Z M 69.94408,19.77568 c -0.39542,-1.949377 -0.1283,-14.924793 0.316406,-15.3694991 0.330192,-0.3301922 3.611559,1.203038 7.291927,3.4071781 l 6.691578,4.007527 -3.871996,2.439202 C 75.923612,17.062392 70.026413,20.181571 69.94408,19.77568 Z"
       id="path3757"
       inkscape:connector-curvature="0" />
    <path
       style="fill:#297ac2"
       d="m 63.75285,135.11343 c -2.610932,-1.53219 -4.410932,-3.15666 -4,-3.60994 0.410933,-0.45328 0.220929,-0.52286 -0.42223,-0.15462 -0.643159,0.36823 -1.768159,0.0707 -2.5,-0.66111 C 55.515854,129.373 54.722276,129 53.239782,129 c -0.41812,0 -1.944756,-1.09836 -3.392523,-2.44081 -1.447768,-1.34245 -2.868362,-2.20475 -3.156877,-1.91624 -0.288515,0.28852 -3.045618,-1.08812 -6.126895,-3.05919 C 37.48221,119.61269 34.769012,118 34.534159,118 33.732707,118 21.503674,110.62754 20.263088,109.39646 18.554145,107.70062 18.612479,87.460162 20.322467,88.79369 20.97011,89.298752 23.975,91.065078 27,92.718858 c 16.056205,8.777992 28.840844,16.729642 28.301351,17.602562 -0.335702,0.54318 -0.110046,0.67838 0.501458,0.30045 1.447088,-0.89435 11.32665,4.70345 12.955665,7.34073 0.818353,1.32487 0.885145,2.0374 0.190983,2.0374 -0.58712,0 -0.842489,0.36406 -0.567487,0.80902 0.614935,0.99499 0.808925,17.50793 0.201363,17.1406 -0.04583,-0.0277 -2.21955,-1.304 -4.830483,-2.83619 z M 65,110.2001 C 56.598738,105.77369 43.501438,97.814207 42.798121,96.707594 42.375999,96.043417 42.023735,95.829812 42.015313,96.232916 42.006891,96.63602 40.5375,96.126949 38.75,95.101648 36.9625,94.076346 31.7875,91.132245 27.25,88.5592 L 19,83.880937 V 73.440468 C 19,67.698211 19.415474,63 19.923275,63 c 0.507801,0 2.245349,1.112452 3.861217,2.472116 1.615869,1.359664 3.297093,2.147164 3.736055,1.75 0.438961,-0.397164 0.491112,0.129034 0.11589,1.169328 -0.561837,1.55768 -0.429202,1.681456 0.751643,0.701441 0.855914,-0.710345 1.669136,-0.809324 2.017562,-0.24556 0.321033,0.519443 3.173595,2.292426 6.339027,3.939963 3.165432,1.647537 9.433914,5.2533 13.92996,8.012807 4.496046,2.759507 9.11508,5.315774 10.264521,5.680592 1.14944,0.364818 1.834985,1.075753 1.523433,1.579855 -0.311552,0.504102 0.01941,0.710039 0.735479,0.457637 0.716066,-0.252402 2.330483,0.400376 3.587593,1.450618 2.143772,1.790996 2.267922,2.535432 2,11.992453 L 68.5,112.04417 Z M 64.5,84.223391 C 62.85,83.275526 61.198486,82.081668 60.829968,81.570374 60.46145,81.05908 59.545117,80.550512 58.793672,80.440223 57.579955,80.262087 51.579341,76.880979 35.63876,67.393348 c -2.673682,-1.591341 -6.178956,-3.588073 -7.789499,-4.437182 -1.610543,-0.849109 -2.572985,-1.933755 -2.13876,-2.410326 0.440875,-0.483869 0.17054,-0.507445 -0.612205,-0.05339 -0.898285,0.521077 -1.853235,0.195595 -2.658934,-0.906264 -0.691476,-0.94565 -1.635709,-1.801899 -2.098296,-1.902775 -0.462586,-0.100876 -0.91997,-4.801507 -1.016409,-10.445846 L 19.149314,36.97513 22.074657,38.703172 C 23.683596,39.653596 25,40.859192 25,41.382274 c 0,0.523083 0.28072,0.67034 0.623822,0.327238 C 26.517605,40.815729 34,44.815436 34,46.186991 c 0,0.630488 0.301578,0.844764 0.670174,0.476168 0.368596,-0.368596 1.606096,-0.06361 2.75,0.67775 C 38.564078,48.082267 42.2,50.16653 45.5,51.972603 c 3.3,1.806074 6.675,3.836449 7.5,4.511944 0.825,0.675496 4.734104,2.97358 8.686897,5.106853 l 7.186897,3.878679 0.313103,9.287274 C 69.607333,87.228347 69.634694,87.173085 64.5,84.223391 Z m 1.472506,-24.915427 c -1.359878,-0.930619 -2.803115,-2.168119 -3.207193,-2.75 -0.404078,-0.58188 -0.741578,-0.704631 -0.75,-0.27278 C 62.006891,56.717035 61.2125,56.589263 60.25,56.001246 59.2875,55.413228 57.15,54.122457 55.5,53.132865 52.518147,51.344489 52.499061,51.275131 52.344841,41.666803 52.250566,35.793249 52.581602,32 53.188461,32 c 0.549328,0 1.244081,0.938041 1.543896,2.084535 0.314865,1.204044 0.824138,1.633072 1.205689,1.015709 0.420427,-0.680265 2.914764,0.264699 6.861262,2.599347 L 69,41.367762 v 9.816119 C 69,56.582746 68.875128,61 68.722506,61 c -0.152621,0 -1.390121,-0.761416 -2.75,-1.692036 z M 102,41.083333 c 0,-0.595833 0.5625,-1.090224 1.25,-1.098646 0.96715,-0.01185 0.95773,-0.200736 -0.0417,-0.834766 -0.8995,-0.570659 -1.23771,-3.1467 -1.11394,-8.484688 C 102.19215,26.449355 102.4618,23 102.69362,23 c 0.45744,0 6.51326,3.359507 12.66567,7.026366 l 3.85929,2.300153 -2.35929,1.818999 c -1.29761,1.000449 -2.94516,1.607137 -3.66123,1.348195 -0.71606,-0.258942 -1.02701,-0.02596 -0.69098,0.517741 C 112.8431,36.555154 112.41648,37 111.55902,37 110.70156,37 110,37.405979 110,37.902175 c 0,0.496196 -1.4625,1.479413 -3.25,2.184927 -1.7875,0.705514 -3.5875,1.462036 -4,1.681159 -0.4125,0.219123 -0.75,-0.08909 -0.75,-0.684928 z M 69.841894,14.084247 C 69.653852,10.763531 69.735275,7.0660179 70.022833,5.8675519 70.537046,3.7244492 70.577086,3.7199434 72.451404,5.5942614 73.499561,6.6424176 74.449055,7.275 74.561391,7 74.858571,6.2725037 83,10.987139 83,11.88673 c 0,0.417318 -1.9125,1.752097 -4.25,2.966176 -2.3375,1.214079 -5.221148,2.896274 -6.408106,3.738212 -2.133667,1.51346 -2.161978,1.462422 -2.5,-4.506871 z"
       id="path3755"
       inkscape:connector-curvature="0" />
    <path
       style="fill:#2a77b7"
       d="m 66.019666,136.01215 c -1.241404,-0.76723 -1.195631,-1.0074 0.301487,-1.58189 2.086486,-0.80066 3.448884,0.1997 2.103821,1.54477 -0.568019,0.56802 -1.52247,0.58275 -2.405308,0.0371 z m -7.899148,-4.56419 c -1.668113,-1.40363 -3.277639,-2.52863 -3.576725,-2.5 C 52.62632,129.13147 52,128.86792 52,127.87756 c 0,-0.73469 0.60455,-0.64833 1.75,0.25 1.572626,1.23333 1.615894,1.20109 0.426887,-0.31812 -0.727712,-0.92981 -1.90719,-1.46643 -2.621061,-1.19249 -1.555015,0.59672 -4.811419,-2.39437 -4.013079,-3.68612 0.308621,-0.49935 -0.174974,-0.62545 -1.074655,-0.28021 -1.309176,0.50238 -1.369462,0.79653 -0.301938,1.47323 0.733615,0.46504 0.856199,0.85242 0.272407,0.86084 -0.583791,0.008 -1.947215,-0.77219 -3.029832,-1.73469 -1.082616,-0.9625 -4.099563,-2.86948 -6.704326,-4.23773 -2.604763,-1.36825 -4.537506,-3.00481 -4.294986,-3.63681 0.273624,-0.71305 -0.291609,-0.95752 -1.489561,-0.64425 -2.064115,0.53978 -5.222827,-1.43198 -4.407466,-2.75126 0.269704,-0.43639 -0.522751,-0.53236 -1.76101,-0.21328 -1.999969,0.51537 -2.09914,0.39452 -0.888073,-1.08224 0.749819,-0.91433 1.831847,-1.37283 2.404508,-1.01891 0.597951,0.36955 0.742834,0.16073 0.340333,-0.49053 -0.520327,-0.84191 -1.183204,-0.83281 -2.573307,0.0353 -1.453303,0.90761 -2.225189,0.8766 -3.44831,-0.1385 -1.262654,-1.04791 -1.547016,-3.30267 -1.430691,-11.344239 0.108761,-7.518649 0.421907,-9.684074 1.248288,-8.631978 0.606708,0.772424 1.776478,1.541638 2.599489,1.709364 0.823011,0.167726 1.990878,0.948231 2.59526,1.734456 0.604382,0.786225 1.391882,1.136495 1.75,0.778377 C 27.706995,92.959672 28,93.218224 28,93.89235 c 0,0.674126 0.45,0.947569 1,0.60765 0.55,-0.339919 1,-0.141476 1,0.440983 0,0.582459 0.3375,1.005728 0.75,0.940596 1.981697,-0.3129 2.598997,0.248478 1.25,1.13676 -1.169904,0.770353 -0.949841,0.932031 1,0.734687 1.527625,-0.154612 2.407428,0.219164 2.261996,0.960986 -0.131357,0.670026 0.387061,0.974152 1.156952,0.678717 1.393823,-0.53486 9.427018,3.926551 10.815739,6.006761 0.404078,0.60528 0.741578,0.73757 0.75,0.29397 C 48.005827,104.58002 54,108.2118 54,109.33805 54,109.83681 53.325,109.68469 52.5,109 51.463637,108.1399 51,108.10205 51,108.87756 51,109.4949 51.476558,110 52.059017,110 c 0.582459,0 0.806838,0.40803 0.49862,0.90674 -0.308218,0.49871 0.335163,0.67255 1.429736,0.38631 1.094573,-0.28624 1.700665,-0.9888 1.346871,-1.56125 -0.668694,-1.08197 1.020348,-0.30862 3.46309,1.58563 1.063113,0.8244 1.063113,1.15787 0,1.8471 -0.837064,0.54267 -0.41038,0.70862 1.202666,0.46773 2.822358,-0.42147 7.533194,1.63639 8.197041,3.58075 0.241672,0.70785 0.548766,4.4898 0.68243,8.40434 0.228343,6.68736 0.103391,7.15475 -2.068223,7.73635 -3.988868,1.06829 -5.567761,0.72206 -8.69073,-1.90574 z M 59,127 c 0,-0.55 -0.476558,-1 -1.059017,-1 -0.582459,0 -0.780902,0.45 -0.440983,1 0.339919,0.55 0.816476,1 1.059017,1 C 58.801558,128 59,127.55 59,127 Z m -4.632436,-2.78571 C 54.634643,123.78214 54.019239,123.42857 53,123.42857 c -1.019239,0 -1.634643,0.35357 -1.367564,0.78572 C 51.899515,124.64643 52.514919,125 53,125 c 0.485081,0 1.100485,-0.35357 1.367564,-0.78571 z M 39.36383,118.50574 c -0.31537,-0.82184 -1.02429,-1.21559 -1.575378,-0.875 -0.616104,0.38078 -0.479472,0.95034 0.354785,1.47895 1.820811,1.15372 1.883223,1.12284 1.220593,-0.60395 z M 66,117.62244 c 0,-0.20765 -0.685301,-0.9463 -1.522892,-1.64144 -1.273347,-1.05678 -1.419678,-0.99492 -0.893011,0.37756 C 64.121993,117.76029 66,118.74278 66,117.62244 Z M 24,107.39235 c 0,-0.82763 -1.941729,-1.29565 -2.386913,-0.57533 -0.28881,0.46731 0.130095,0.84965 0.930902,0.84965 0.800806,0 1.456011,-0.12345 1.456011,-0.27432 z m 15,-1.78536 c 0,-0.21616 -0.698372,-0.661 -1.551938,-0.98855 -0.889925,-0.34149 -1.291322,-0.17385 -0.940983,0.39301 C 37.094337,105.96166 39,106.4169 39,105.60699 Z m 2.369252,-1.8927 C 39.742048,101.55705 36,100.51164 36,102.21429 36,102.64643 36.8449,103 37.877555,103 c 1.032656,0 2.437756,0.675 3.122445,1.5 1.974547,2.37918 2.274731,1.74044 0.369252,-0.78571 z M 28,97.622445 c 0,-0.207656 -0.7875,-0.995156 -1.75,-1.75 C 24.663944,94.628574 24.628574,94.663944 25.872445,96.25 27.178814,97.915748 28,98.445479 28,97.622445 Z M 24,96.39235 c 0,-0.827627 -1.941729,-1.295651 -2.386913,-0.575329 -0.28881,0.467305 0.130095,0.849646 0.930902,0.849646 C 23.344795,96.666667 24,96.543224 24,96.39235 Z m 42.25,14.57649 C 65.0125,110.47142 64,109.59995 64,109.03222 c 0,-0.56772 -0.3375,-0.93662 -0.75,-0.81977 -1.522302,0.43122 -5.283766,-2.3488 -4.6235,-3.41713 0.430384,-0.69638 0.220797,-0.81898 -0.567344,-0.33188 -1.154351,0.71343 -4.801278,-0.59407 -7.820246,-2.80372 -0.981842,-0.71863 -0.871126,-1.23823 0.5,-2.346535 1.568746,-1.268042 1.493263,-1.292612 -0.691111,-0.224953 -1.831308,0.89509 -2.549228,0.907481 -2.83541,0.04894 -0.210765,-0.632296 -0.758496,-0.917689 -1.217179,-0.634207 -0.458684,0.283482 -1.432749,-0.06829 -2.16459,-0.78171 -0.731841,-0.713422 -3.028566,-2.093628 -5.103833,-3.067124 -2.22096,-1.041839 -3.494406,-2.22111 -3.095491,-2.866568 0.39172,-0.633817 0.219674,-0.813488 -0.407689,-0.425756 C 34.626631,91.730755 33.851008,91.567943 33.5,91 33.148992,90.432057 32.490901,90.196607 32.037575,90.476777 31.58425,90.756948 30.931771,89.864288 30.587621,88.493089 29.970836,86.035621 28.675437,85.501985 24.25,85.882325 23.0125,85.98868 22,85.608666 22,85.037849 22,84.467032 21.4375,84.1125 20.75,84.25 c -0.924989,0.184998 -1.324079,-2.572743 -1.53491,-10.606339 -0.261637,-9.969495 -0.15369,-10.725119 1.321428,-9.25 1.916385,1.916385 2.864795,2.097959 1.861249,0.356339 -0.396147,-0.6875 0.398179,-0.233384 1.76517,1.009146 1.36699,1.242531 2.861251,1.917531 3.320579,1.5 0.459329,-0.41753 0.566859,-0.0089 0.238956,0.908095 -0.354039,0.990072 0.0085,1.899283 0.892608,2.238546 0.934234,0.358499 1.231355,0.154757 0.797662,-0.546973 -0.418226,-0.676704 -0.142583,-0.925834 0.698062,-0.630917 0.764058,0.268048 1.324065,1.242215 1.24446,2.164815 -0.115848,1.342646 0.139882,1.441243 1.281256,0.493987 1.129637,-0.937516 1.724622,-0.788939 2.862932,0.714916 0.790318,1.044112 1.451253,1.500199 1.468745,1.013526 0.01749,-0.486672 0.967837,0.305116 2.111878,1.759528 1.144041,1.454413 2.456279,2.41188 2.916084,2.127705 1.4775,-0.913145 6.177792,1.407151 5.39997,2.665692 -0.484919,0.784616 -0.183939,0.964487 0.910887,0.544362 0.899309,-0.345097 2.290986,0.02843 3.092617,0.830062 C 52.201263,82.34412 53.353409,83 53.959956,83 c 0.606548,0 1.360844,0.672415 1.676214,1.494256 0.31537,0.821841 0.991582,1.235806 1.502693,0.919922 0.52191,-0.322558 0.722575,0.565649 0.457742,2.026117 -0.272843,1.504636 -0.06963,2.352052 0.482233,2.01098 C 58.60342,89.127066 58.792943,88.473992 58.5,88 c -0.825138,-1.335101 0.925965,-1.977065 2.547746,-0.934017 1.263979,0.812928 1.257789,1.067599 -0.04775,1.964394 -1.143468,0.785468 -0.890751,0.889687 1.063228,0.438468 1.713935,-0.395786 3.331895,0.03052 4.883121,1.286627 1.98249,1.605324 2.149976,2.196027 1.151588,4.061532 C 67.280776,96.343882 67.257125,97 68.019247,97 c 0.716353,0 0.985328,2.569018 0.785184,7.4994 -0.167437,4.12468 -0.304431,7.47115 -0.304431,7.43662 0,-0.0345 -1.0125,-0.46977 -2.25,-0.96718 z M 56,102 c -0.588702,-1.1 -1.617035,-1.99311 -2.285184,-1.98469 -0.763136,0.01 -0.657102,0.37574 0.285184,0.98469 0.825,0.53316 1.05,0.98316 0.5,1 -0.55,0.0168 -0.325,0.46684 0.5,1 2.10826,1.36246 2.209936,1.26079 1,-1 z M 42,93.440983 c 0,-0.857459 -0.45734,-1.276365 -1.016312,-0.930902 -0.558971,0.345464 -0.757414,1.047021 -0.440983,1.559017 C 41.399945,95.456142 42,95.197509 42,93.440983 Z M 55.367564,89.214286 C 55.634643,88.782143 55.019239,88.428571 54,88.428571 c -1.019239,0 -1.634643,0.353572 -1.367564,0.785715 C 52.899515,89.646429 53.514919,90 54,90 c 0.485081,0 1.100485,-0.353571 1.367564,-0.785714 z M 32.526461,82.193128 c -0.307887,-0.307887 -1.114794,-6.34e-4 -1.793128,0.682784 -0.980267,0.987616 -0.865403,1.10248 0.559795,0.559795 0.986221,-0.375531 1.541221,-0.934692 1.233333,-1.242579 z m 12.180237,-2.566492 c 0.344495,-0.344496 -0.816659,-0.458342 -2.580343,-0.252991 -1.763684,0.20535 -3.488557,0.655224 -3.833053,0.999719 -0.344495,0.344496 0.816659,0.458342 2.580343,0.252991 1.763684,-0.20535 3.488557,-0.655224 3.833053,-0.999719 z M 37,77.559017 C 37,77.316476 36.55,76.839919 36,76.5 35.45,76.160081 35,76.358524 35,76.940983 35,77.523442 35.45,78 36,78 c 0.55,0 1,-0.198442 1,-0.440983 z M 26.891663,88.058273 c -1.315415,-1.095454 -1.915171,-2.006706 -1.332793,-2.025004 1.550377,-0.04871 5.041411,2.699783 4.33122,3.409974 -0.33372,0.333721 -1.683013,-0.289516 -2.998427,-1.38497 z M 63.5,83.158321 C 61.85,82.14951 59.886512,80.581147 59.136693,79.67307 58.386874,78.764993 57.378156,78.266287 56.895097,78.564833 56.412038,78.86338 54.045264,77.751188 51.635599,76.093295 49.225934,74.435402 46.900454,73.398681 46.467866,73.789472 46.035277,74.180262 45.942331,73.76875 46.261319,72.875 46.681913,71.696565 46.244782,71.248842 44.670648,71.245784 42.416808,71.241407 31.280664,65.137807 28.556834,62.413977 27.700575,61.557718 27,61.200294 27,61.619701 27,62.039108 26.291629,61.508751 25.425843,60.44113 24.560056,59.373508 24.136614,59.0625 24.48486,59.75 c 0.934901,1.845663 -1.233248,1.522023 -2.275064,-0.3396 -0.489272,-0.874279 -1.299132,-1.436779 -1.799691,-1.25 -0.500558,0.18678 -1.040675,-3.635626 -1.200261,-8.494235 -0.229439,-6.985322 -0.02019,-8.680966 1,-8.103295 1.035366,0.586267 1.043297,0.464582 0.04016,-0.616166 -1.49531,-1.610992 -1.680244,-4.330643 -0.233688,-3.436623 0.558971,0.345464 0.714443,1.11655 0.345491,1.713526 -0.41277,0.667876 -0.202466,0.795951 0.546702,0.33294 0.689808,-0.426325 2.102579,0.0485 3.259496,1.095492 1.123086,1.016378 2.21973,1.735461 2.436987,1.597961 C 27.593202,41.624567 29,42.099773 29,43.059017 c 0,0.582459 -0.519529,0.737931 -1.154508,0.345491 -0.67883,-0.419539 -0.884429,-0.276527 -0.499005,0.347103 0.360528,0.583346 1.454567,0.851669 2.431198,0.596275 0.993027,-0.259683 3.055567,0.635408 4.679437,2.030757 1.597058,1.372312 4.001908,2.770734 5.34411,3.107605 2.395914,0.601337 5.221942,2.787958 5.319892,4.116234 0.02733,0.370651 -0.551238,1.054832 -1.285714,1.520402 -1.023899,0.64903 -0.927188,0.850062 0.41459,0.861803 0.993931,0.0087 1.76374,-0.740756 1.781803,-1.734687 0.0291,-1.601097 0.154003,-1.588562 1.467967,0.147322 0.78989,1.043527 1.15605,2.350556 0.813689,2.904508 -0.356269,0.576455 -0.121764,0.69773 0.548344,0.28358 0.643952,-0.397984 0.911923,-1.142512 0.595492,-1.654508 C 48.377542,54.183825 50.685181,54.994647 52.5,57 c 0.995486,1.1 2.752731,2.006891 3.904988,2.015313 1.742625,0.01274 1.842708,0.188467 0.595012,1.04475 -1.237832,0.849513 -1.150443,0.980914 0.5,0.751809 2.37899,-0.330236 6.807906,2.513692 5.743639,3.688148 -0.409002,0.451347 -0.177112,0.494438 0.51531,0.09576 0.692421,-0.39868 2.154921,-0.440502 3.25,-0.09294 C 68.78842,65.067622 69,66.025592 69,73.517698 c 0,6.888422 -0.311988,8.583521 -1.75,9.508117 -1.666667,1.071615 -1.666667,1.099285 0,0.581075 0.9625,-0.299266 1.75,-0.108244 1.75,0.424495 0,1.495087 -2.197122,1.146319 -5.5,-0.873064 z m -4.833333,-7.721367 c 0,-0.6394 -0.825,-0.946804 -1.833334,-0.683119 C 55.825,75.01752 55,75.602812 55,76.054482 c 0,0.451671 0.825,0.759075 1.833333,0.683119 1.008334,-0.07595 1.833334,-0.661246 1.833334,-1.300647 z M 47,69 C 46.175,68.466844 44.685942,68.023735 43.690983,68.015313 42.696024,68.006891 42.160081,67.55 42.5,67 42.839919,66.45 42.641476,66 42.059017,66 41.476558,66 41,66.465833 41,67.035184 c 0,0.713578 -0.600925,0.713578 -1.934259,0 -2.555995,-1.367927 -4.093543,-1.281173 -1.722346,0.09718 1.013868,0.589352 3.263868,1.292961 5,1.563577 1.736133,0.270616 3.344105,0.674735 3.573272,0.898043 0.229166,0.223308 0.904166,0.399124 1.5,0.390702 C 48.0125,69.976265 47.825,69.533156 47,69 Z m 3.729167,-1.604167 c -0.332292,-0.332291 -1.194792,-0.367818 -1.916667,-0.07895 -0.797733,0.319226 -0.560776,0.556183 0.604167,0.604167 1.054166,0.04342 1.644791,-0.192928 1.3125,-0.52522 z M 55.5,62 C 55.160081,61.45 54.458524,61 53.940983,61 53.423442,61 53,61.45 53,62 c 0,0.55 0.701558,1 1.559017,1 0.857459,0 1.280902,-0.45 0.940983,-1 z M 34.127555,59.25 C 35.397071,57.631245 35.350006,57.610023 33.5,58.967032 32.4,59.7739 31.3125,60.5614 31.083333,60.717032 30.854167,60.872665 31.136567,61 31.710889,61 c 0.574322,0 1.661822,-0.7875 2.416666,-1.75 z m 1.601612,-10.854167 c -0.332292,-0.332291 -1.194792,-0.367818 -1.916667,-0.07895 -0.797733,0.319226 -0.560776,0.556183 0.604167,0.604167 1.054166,0.04342 1.644791,-0.192928 1.3125,-0.52522 z m -3.202706,-2.202705 c -0.307887,-0.307887 -1.114794,-6.34e-4 -1.793128,0.682784 -0.980267,0.987616 -0.865403,1.10248 0.559795,0.559795 0.986221,-0.375531 1.541221,-0.934692 1.233333,-1.242579 z m 7.45454,29.28398 C 38.924217,74.203761 38.986084,74.05743 40.358556,74.584097 41.26135,74.930531 42,75.615833 42,76.106989 c 0,1.285959 -0.578873,1.105364 -2.018999,-0.629881 z M 64.215516,57.546855 C 62.132801,54.899112 60.412331,54.072857 61.51514,56.25 61.863386,56.9375 61.43994,56.626492 60.574157,55.55887 59.708371,54.491249 59,53.983849 59,54.431315 c 0,0.447466 -0.695479,0.236378 -1.545509,-0.469084 -0.85003,-0.705462 -1.333698,-1.834629 -1.074818,-2.50926 0.309915,-0.807626 -0.211186,-1.048286 -1.525588,-0.704562 -1.907806,0.498902 -1.982048,0.0993 -1.675182,-9.016518 0.176603,-5.246206 0.658597,-9.330499 1.071097,-9.076207 0.4125,0.254293 0.75,1.055692 0.75,1.780888 0,0.725196 0.7875,1.936139 1.75,2.690983 1.591282,1.24797 1.623706,1.211535 0.357499,-0.401721 -2.066513,-2.632917 -0.632728,-3.205974 1.71536,-0.685597 1.113179,1.194857 2.519576,1.86616 3.125328,1.491785 0.619505,-0.382875 0.981148,-0.101271 0.82659,0.643648 -0.167801,0.808742 0.459393,1.197795 1.610998,0.999314 1.312236,-0.226166 1.715166,0.119585 1.324818,1.136815 -0.407537,1.062025 -0.0237,1.321336 1.40343,0.948132 1.863068,-0.487203 1.94947,-0.03423 1.675182,8.782295 -0.314495,10.108901 -1.279571,11.692422 -4.573689,7.504629 z M 66.5,54 C 66.160081,53.45 65.346024,53.006891 64.690983,53.015313 63.975367,53.024514 64.098708,53.41754 65,54 c 1.921123,1.241525 2.267305,1.241525 1.5,0 z m -7,-2 c 0.339919,-0.55 0.168034,-1 -0.381966,-1 -0.55,0 -1.278115,0.45 -1.618034,1 -0.339919,0.55 -0.168034,1 0.381966,1 0.55,0 1.278115,-0.45 1.618034,-1 z m 5.229167,-0.604167 c -0.332292,-0.332291 -1.194792,-0.367818 -1.916667,-0.07895 -0.797733,0.319226 -0.560776,0.556183 0.604167,0.604167 1.054166,0.04342 1.644791,-0.192928 1.3125,-0.52522 z M 103.89938,40.621238 C 104.92812,39.381681 104.95181,39 104,39 c -0.99319,0 -0.99319,-0.303284 0,-1.5 0.8601,-1.036363 0.89795,-1.5 0.12244,-1.5 C 103.41723,36 103,33.769683 103,30 c 0,-3.6 0.42857,-6 1.07143,-6 1.53412,0 3.96017,2.635066 3.16143,3.433805 -0.36954,0.369545 0.17571,0.346644 1.21167,-0.05089 1.41167,-0.541712 1.67849,-0.39098 1.06501,0.601656 -0.5457,0.882953 -0.43231,1.085732 0.34016,0.60832 0.6373,-0.39387 2.94893,0.290028 5.13697,1.519774 l 3.97825,2.235901 -2.73246,1.696383 c -2.45568,1.524552 -2.90972,1.541845 -4.48246,0.17073 -1.26956,-1.106809 -1.75,-1.179197 -1.75,-0.263677 0,0.729685 -0.6546,1.010785 -1.55194,0.666442 -0.85356,-0.327544 -1.30076,-0.189123 -0.99377,0.307601 0.307,0.496725 0.21787,1.092817 -0.19806,1.324651 -0.95385,0.531665 1.25119,-0.05137 3.24377,-0.857684 0.825,-0.333844 1.5,-0.108844 1.5,0.5 C 112,36.501855 111.6128,37 111.13955,37 c -0.47325,0 -2.59863,1.179557 -4.72307,2.621238 -2.12443,1.441681 -3.25713,1.891681 -2.5171,1 z M 116.5,32 c -0.33992,-0.55 -1.15398,-0.993109 -1.80902,-0.984687 C 113.97537,31.024514 114.09871,31.41754 115,32 c 1.92112,1.241525 2.2673,1.241525 1.5,0 z M 70.100016,13.25 C 70.234775,10.0875 70.8299,7.1693907 71.422516,6.7653128 72.150322,6.2690551 72.094335,6.0256561 71.25,6.0153128 70.5625,6.0068907 70,5.4802556 70,4.8450124 c 0,-0.6357856 0.946256,-0.2986379 2.104988,0.75 1.157743,1.0477432 2.282743,1.7924876 2.5,1.6549876 0.217256,-0.1375 0.282512,0.0875 0.145012,0.5 -0.1375,0.4125 -0.620948,0.6263505 -1.07433,0.4752234 -0.453381,-0.1511271 -0.525819,0.2082241 -0.160972,0.7985583 0.467789,0.7568982 1.066421,0.7388221 2.030525,-0.061313 1.408051,-1.1685785 3.852732,-0.4153904 3.020809,0.9306889 -0.256625,0.4152284 0.477991,0.7216334 1.63248,0.6809014 3.168903,-0.111805 3.213765,1.900775 0.07738,3.47154 -4.563887,2.28569 -4.89878,2.25539 -2.228673,-0.201644 1.400972,-1.289175 1.983185,-1.967715 1.293805,-1.507865 -0.689379,0.459849 -1.792658,0.502821 -2.451731,0.09549 -0.675082,-0.417224 -0.93739,-0.31842 -0.600743,0.226286 C 77.013346,13.830611 72.752562,19 71.06115,19 70.231051,19 69.93139,17.207274 70.100016,13.25 Z"
       id="path3753"
       inkscape:connector-curvature="0" />
  </g>
</svg>
